<svg xmlns="http://www.w3.org/2000/svg" viewBox="0 0 390 844" width="390" height="844">
  <!-- Device Frame Outline -->
  <rect x="2" y="2" width="386" height="840" fill="#FFFFFF" stroke="#000000" stroke-width="3"/>

  <!-- Header Placeholder -->
  <rect x="2" y="2" width="386" height="60" fill="#F5F5F5" stroke="#000000" stroke-width="2"/>
  <rect x="20" y="20" width="80" height="24" fill="#E0E0E0"/>
  <!-- Icons Placeholder (Circles) -->
  <circle cx="320" cy="32" r="12" fill="none" stroke="#000000" stroke-width="2"/>
  <circle cx="360" cy="32" r="12" fill="none" stroke="#000000" stroke-width="2"/>

  <!-- Alert Banner Placeholder (Box with crossed lines indicating an element) -->
  <rect x="20" y="85" width="350" height="70" fill="none" stroke="#000000" stroke-width="2"/>
  <line x1="20" y1="85" x2="370" y2="155" stroke="#E0E0E0" stroke-width="1"/>
  <line x1="370" y1="85" x2="20" y2="155" stroke="#E0E0E0" stroke-width="1"/>
  <rect x="115" y="110" width="160" height="20" fill="#FFFFFF" stroke="#000000" stroke-width="1"/>
  <text x="135" y="125" font-family="sans-serif" font-size="14" fill="#000000">[ Alert Widget ]</text>

  <!-- Section Title 1 -->
  <rect x="20" y="185" width="140" height="18" fill="#E0E0E0"/>

  <!-- Telemetry Grid Placeholders (2x2) -->
  <!-- Box 1 -->
  <rect x="20" y="220" width="165" height="90" fill="none" stroke="#000000" stroke-width="2"/>
  <rect x="35" y="240" width="60" height="12" fill="#E0E0E0"/>
  <rect x="35" y="270" width="80" height="24" fill="#CCCCCC"/>
  
  <!-- Box 2 -->
  <rect x="205" y="220" width="165" height="90" fill="none" stroke="#000000" stroke-width="2"/>
  <rect x="220" y="240" width="60" height="12" fill="#E0E0E0"/>
  <rect x="220" y="270" width="80" height="24" fill="#CCCCCC"/>

  <!-- Box 3 -->
  <rect x="20" y="325" width="165" height="90" fill="none" stroke="#000000" stroke-width="2"/>
  <rect x="35" y="345" width="60" height="12" fill="#E0E0E0"/>
  <rect x="35" y="375" width="80" height="24" fill="#CCCCCC"/>

  <!-- Box 4 -->
  <rect x="205" y="325" width="165" height="90" fill="none" stroke="#000000" stroke-width="2"/>
  <rect x="220" y="345" width="60" height="12" fill="#E0E0E0"/>
  <rect x="220" y="375" width="80" height="24" fill="#CCCCCC"/>

  <!-- Section Title 2 -->
  <rect x="20" y="445" width="120" height="18" fill="#E0E0E0"/>

  <!-- AI Digest Placeholder -->
  <rect x="20" y="475" width="350" height="120" fill="none" stroke="#000000" stroke-width="2"/>
  <!-- Dummy Text Lines -->
  <rect x="35" y="495" width="310" height="10" fill="#E0E0E0"/>
  <rect x="35" y="515" width="290" height="10" fill="#E0E0E0"/>
  <rect x="35" y="535" width="200" height="10" fill="#E0E0E0"/>
  <!-- Button Placeholder -->
  <rect x="35" y="560" width="140" height="25" fill="#CCCCCC" stroke="#000000" stroke-width="1"/>
  <text x="65" y="577" font-family="sans-serif" font-size="12" fill="#000000">[ Button ]</text>

  <!-- Section Title 3 -->
  <rect x="20" y="625" width="100" height="18" fill="#E0E0E0"/>

  <!-- Chat / Ask AI Placeholder -->
  <rect x="20" y="655" width="350" height="165" fill="none" stroke="#000000" stroke-width="2"/>
  
  <!-- Chat Bubbles -->
  <rect x="35" y="675" width="220" height="40" fill="#F5F5F5" stroke="#000000" stroke-width="1"/>
  <rect x="135" y="725" width="220" height="40" fill="#E0E0E0" stroke="#000000" stroke-width="1"/>

  <!-- Input Field & Send Button -->
  <rect x="35" y="780" width="245" height="30" fill="none" stroke="#000000" stroke-width="1"/>
  <text x="45" y="799" font-family="sans-serif" font-size="12" fill="#999999">Input text...</text>
  <rect x="290" y="780" width="65" height="30" fill="#CCCCCC" stroke="#000000" stroke-width="1"/>
  <text x="307" y="799" font-family="sans-serif" font-size="12" fill="#000000">Send</text>
</svg>